<svg xmlns="http://www.w3.org/2000/svg" fill="none" viewBox="0 0 34 26">
    <path d="m11.1063 21.637-8.98841 3.1263c-.81727.2843-1.585348-.5332-1.250714-1.3312L5.98564 11.2265C6.29724 10.4835 7.02429 10 7.83003 10h7.58327c.7357 0 1.2195.7677.9021 1.4315l-4.6355 9.6924c-.1151.2407-.3217.4254-.5736.5131ZM23.5489 1.11969 34.4491 23.3561c.3905.7966-.3726 1.6694-1.2142 1.3889l-7.8616-2.6206c-.2399-.0799-.4406-.2478-.5617-.4698L13.8066 1.47885C13.4432.812477 13.9255 0 14.6845 0h7.0685c.7632 0 1.4599.434376 1.7959 1.11969Z" fill="#000"/>
    <style>
        path { fill: #000; }
        @media (prefers-color-scheme: dark) {
            path { fill: #FFF; }
        }
    </style>
</svg>
