<svg width="635" height="641" viewBox="0 0 635 641" fill="none" xmlns="http://www.w3.org/2000/svg">
<g clip-path="url(#clip0_70_2)">
<rect width="635" height="641" rx="260" fill="white"/>
<g clip-path="url(#clip1_70_2)">
<path fill-rule="evenodd" clip-rule="evenodd" d="M535.423 474.142C535.423 474.142 456.673 480.219 424.539 474.469C379.922 466.487 328.714 306.234 284.52 277.362C245.406 251.807 211.31 289.463 211.31 289.463C234.7 248.151 252.148 212.769 280.573 171.193C301.424 140.695 347.117 149.995 369.117 188.23C402.407 246.084 535.423 474.142 535.423 474.142Z" fill="black"/>
<path fill-rule="evenodd" clip-rule="evenodd" d="M298.672 475.444C298.672 475.444 251.265 395.621 230.143 376.552C203.586 352.575 153.956 368.473 145.205 400.59C137.187 430.044 158.856 459.963 187.996 468.43C207.488 474.095 298.672 475.444 298.672 475.444Z" fill="black" stroke="black" stroke-miterlimit="1.5" stroke-linecap="round" stroke-linejoin="round"/>
</g>
</g>
<defs>
<clipPath id="clip0_70_2">
<rect width="635" height="641" fill="white"/>
</clipPath>
<clipPath id="clip1_70_2">
<rect width="393" height="323" fill="white" transform="translate(143 153)"/>
</clipPath>
</defs>
</svg>
