<svg xmlns="http://www.w3.org/2000/svg" width="393" height="323" fill="none">
<g fill="#000" fill-rule="evenodd" clip-path="url(#a)" clip-rule="evenodd"><path d="M392.423 321.142s-78.75 6.077-110.884.327c-44.617-7.982-95.825-168.235-140.019-197.107-39.114-25.555-73.21 12.101-73.21 12.101 23.39-41.312 40.838-76.694 69.263-118.27 20.851-30.498 66.544-21.198 88.544 17.037 33.29 57.854 166.306 285.912 166.306 285.912"/><path stroke="#000" stroke-linecap="round" stroke-linejoin="round" stroke-miterlimit="1.5" d="M155.672 322.444s-47.407-79.823-68.528-98.892c-26.558-23.977-76.188-8.079-84.94 24.038-8.017 29.454 13.652 59.373 42.792 67.84 19.492 5.665 110.676 7.014 110.676 7.014"/></g><defs><clipPath id="a"><path fill="#fff" d="M0 0h393v323H0z"/></clipPath></defs></svg>